<?xml version="1.0" encoding="UTF-8"?><!DOCTYPE svg PUBLIC "-//W3C//DTD SVG 1.1//EN" "http://www.w3.org/Graphics/SVG/1.1/DTD/svg11.dtd"><svg xmlns="http://www.w3.org/2000/svg" xmlns:xlink="http://www.w3.org/1999/xlink" version="1.1" id="Layer_1" x="0px" y="0px" width="100px" height="100px" viewBox="0 0 100 100" xml:space="preserve"><path id="Dropbox_1_" d="M78.01 40.856L51.09 24.46l16.977-14.054 26.936 16.576L78.01 40.856zM67.887 71.848l25.852-15.135-15.55-13.153-25.31 15.315 15.008 12.973zM47.129 58.875L21.816 43.56 6.27 56.713l25.854 15.135 15.005-12.973zM23.082 69.686v4.865l25.836 15.855V60.315L31.762 74.369l-8.68-4.683zm53.84 0l-8.674 4.684L51.09 60.315v30.091l25.832-15.855v-4.865zM48.918 24.46L31.941 10.406 5.002 26.982l16.996 13.874 26.92-16.396z"/><metadata><rdf:RDF xmlns:rdf="http://www.w3.org/1999/02/22-rdf-syntax-ns#" xmlns:rdfs="http://www.w3.org/2000/01/rdf-schema#" xmlns:dc="http://purl.org/dc/elements/1.1/"><rdf:Description about="https://iconscout.com/legal#licenses" dc:title="dropbox" dc:description="dropbox" dc:publisher="Iconscout" dc:date="2018-02-25" dc:format="image/svg+xml" dc:language="en"><dc:creator><rdf:Bag><rdf:li>Icons Mind</rdf:li></rdf:Bag></dc:creator></rdf:Description></rdf:RDF></metadata></svg>